<svg xmlns="http://www.w3.org/2000/svg" viewBox="0 0 349.12 162.27"><defs><style>.cls-1{fill:#7ab3f7;}.cls-2{fill:#d7ecff;}.cls-3{fill:#e7f3ff;}.cls-4{fill:#0052d9;}.cls-5,.cls-7{fill:#c0dbfb;}.cls-5,.cls-6{opacity:0.46;}.cls-8{fill:#e2f0ff;}</style></defs><g id="图层_2" data-name="图层 2"><g id="图层_1-2" data-name="图层 1"><path class="cls-1" d="M335.87,144.53c-2.21-2.73-5.89,1.74-5.89,1.74s2.58-9.56-2-12.69-11.54,11.23-11.59,11.34c1-6.37,1.54-12.86,0-14.86-3.32-4.31-8.84,8.61-8.84,8.61s.74-10.18-4.42-13.31-4.78,15.26-4.78,15.26c-2.95-2.74-7.73-7-8.72-3.13-.2.8.26,2.21,1.1,3.92-2.84-1.51-5.18-.85-4.71,5.9,0,0-5.85-10.11-10.64-5.11s3.27,17.2,3.27,17.2h54.3s5.16-12.13,2.95-14.87"/><path class="cls-1" d="M92.05,129.57c-2.5-2.92-6.67,1.85-6.67,1.85s2.92-10.19-2.29-13.53S70,129.86,70,130c1.14-6.79,1.74-13.71,0-15.84-3.76-4.59-10,9.17-10,9.17s.83-10.84-5-14.18-5.42,16.27-5.42,16.27c-3.34-2.92-8.76-7.51-9.87-3.34-.23.86.28,2.35,1.24,4.18-3.22-1.61-5.87-.9-5.34,6.29,0,0-6.63-10.78-12-5.45s3.71,18.34,3.71,18.34H88.72S94.56,132.49,92.05,129.57Z"/><path class="cls-2" d="M72,144.36c-2.5-2.91-6.65,1.84-6.65,1.84s2.91-10.15-2.29-13.48-13.05,12-13.08,12.05c1.14-6.77,1.73-13.66,0-15.79-3.74-4.57-10,9.15-10,9.15s.83-10.81-5-14.13-5.4,16.2-5.4,16.2c-3.33-2.91-8.73-7.48-9.84-3.32-.23.85.3,2.35,1.25,4.16-3.21-1.6-5.86-.91-5.33,6.27,0,0-6.6-10.74-12-5.43s3.69,18.27,3.69,18.27H68.71S74.53,147.27,72,144.36Z"/><path class="cls-3" d="M66.68,0H278.87a4,4,0,0,1,4,4V158.33a0,0,0,0,1,0,0H62.68a0,0,0,0,1,0,0V4A4,4,0,0,1,66.68,0Z"/><ellipse class="cls-3" cx="174.56" cy="159.91" rx="174.56" ry="2.36"/><path class="cls-4" d="M66.68,0H278.87a4,4,0,0,1,4,4v7.74a0,0,0,0,1,0,0H62.68a0,0,0,0,1,0,0V4A4,4,0,0,1,66.68,0Z"/><path class="cls-5" d="M256.06,74.75V67a3.09,3.09,0,0,0-2.38-3c-4.38-1.36-13.68-3.05-25.82,1.39-17.15,6.27-23.21-26.21-50.07-28.51s-34.13,24-50.18,25S102.54,37.94,95,37.47C86,36.9,87.4,43.83,87.4,43.83V74.26c.09,2.57,3.19,4.92,6.5,4.91l157.26-.74C253.94,78.42,256,76.89,256.06,74.75Z"/><g class="cls-6"><path class="cls-7" d="M165.4,105.9l86.33-.28a2.75,2.75,0,0,0,2.85-2.7h0a2.86,2.86,0,0,0-3-2.68l-86.32.28a2.74,2.74,0,0,0-2.85,2.69h0A2.85,2.85,0,0,0,165.4,105.9Z"/><path class="cls-7" d="M210.43,118.84l41.52-.13A2.74,2.74,0,0,0,254.8,116h0a2.85,2.85,0,0,0-2.94-2.69l-41.52.14a2.74,2.74,0,0,0-2.85,2.69h0A2.83,2.83,0,0,0,210.43,118.84Z"/><path class="cls-7" d="M184.39,132l67.79-.22a2.74,2.74,0,0,0,2.85-2.69h0a2.85,2.85,0,0,0-2.94-2.69l-67.79.22a2.74,2.74,0,0,0-2.85,2.7h0A2.85,2.85,0,0,0,184.39,132Z"/></g><path class="cls-4" d="M206,67.13c-1.4,1.39-2.41,1.39-3.81,0l-14-13.8c-1.41-1.39-1.41-2.39,0-3.77l5.72-5.65a3.63,3.63,0,0,1,5.09,0l12.71,12.56a3.53,3.53,0,0,1,0,5S206,67.13,206,67.13Z"/><path class="cls-4" d="M201.44,71.63,160.85,111.7a1.82,1.82,0,0,1-2.54,0L143.06,96.63a1.75,1.75,0,0,1,0-2.48l0,0,40.58-40.07a1.82,1.82,0,0,1,2.54,0l15.26,15.06a1.78,1.78,0,0,1,0,2.51Z"/><path class="cls-4" d="M149.93,81.43l-5.67-5.54L154.9,65.33l-2.77-2.75L141.47,73.17l-5.12-5L147,57.55l-2.75-2.73L133.57,65.45l-2.69-2.63a3.79,3.79,0,0,1,0-5.48l13.55-13.25a4,4,0,0,1,5.61,0l19,18.59-18.93,18.5c-.08.08-.13.17-.21.25Z"/><polygon class="cls-4" points="133.23 122.69 131.79 123.18 131.41 122.81 131.9 121.4 133.23 122.69"/><polygon class="cls-4" points="134.01 115.34 139.37 120.63 133.74 122.52 132.09 120.89 134.01 115.34"/><polygon class="cls-4" points="134.66 113.47 140.51 96.63 158.31 114.22 141.27 119.99 134.66 113.47"/><path class="cls-4" d="M193.48,86.54l19,18.59a3.83,3.83,0,0,1,0,5.49L199,123.86a3.85,3.85,0,0,1-2.81,1.14,3.79,3.79,0,0,1-2.79-1.14l-3-2.91,9.82-9.75-2.76-2.74-9.85,9.78-5.12-5,9.84-9.78-2.76-2.73-9.87,9.8-5.39-5.28c.11-.07,19.2-18.7,19.2-18.7Z"/><path class="cls-8" d="M312.31,44.37a17.82,17.82,0,1,0,18,17.82h-18Z"/><path class="cls-1" d="M314.11,46.16V60.4h14.36A14.3,14.3,0,0,0,314.11,46.16Z"/></g></g></svg>