<svg xmlns="http://www.w3.org/2000/svg" viewBox="0 0 349.12 162.27"><defs><style>.cls-1{fill:#e9f2ff;}.cls-2{fill:#b3c8e3;}.cls-3{fill:#7ab3f7;}.cls-4{fill:#b4d8ff;}.cls-5{fill:#e2f0ff;}.cls-6{fill:#e7f3ff;}.cls-7{fill:#0052d9;}.cls-8{fill:#c0dbfb;opacity:0.46;}.cls-9{fill:#a3c7f4;}.cls-10{fill:#fff;}</style></defs><g id="图层_2" data-name="图层 2"><g id="图层_1-2" data-name="图层 1"><path class="cls-1" d="M333.8,93.44a6.27,6.27,0,0,1-.68-3.85c.59-4.28,1.32-14.25-3.56-20.12,0,0-3.18-5.14-8.6-6a4.42,4.42,0,0,0-3.9,1.28c-3.64,3.73-13,14.56-11.45,26.23,0,0,.76,11.78-.17,17.12,0,0-3.79,34.74,18,34,0,0,13.66-1.28,16.23-18.4C341.69,110.12,336.17,97.91,333.8,93.44Z"/><path class="cls-2" d="M321.67,160.53h2.52a.7.7,0,0,0,.7-.73l-1.05-33.47a.71.71,0,0,1,.32-.62,24.6,24.6,0,0,0,3.31-2.44.68.68,0,0,1,.46-.21c1.2,0,6-.37,7.49-3a1.27,1.27,0,0,0-.33-1.6h0a5.72,5.72,0,0,1-3.84,2.28.69.69,0,0,1-.58-1.15,5.8,5.8,0,0,0,1.51-3.8.72.72,0,0,0-.71-.7h0a1.49,1.49,0,0,0-1.42,1c-.7,1.92-2.53,6.09-5.76,7.7a.7.7,0,0,1-1-.65l0-22.8a.7.7,0,0,1,.42-.64c1.33-.58,5.31-2.7,4.88-7H328a.69.69,0,0,0-.65.45,10.31,10.31,0,0,1-3.05,4.47.71.71,0,0,1-1.1-.59V87.26a.7.7,0,0,0-.7-.71h-.23a.71.71,0,0,0-.7.71v27.43a.7.7,0,0,1-1.05.62,8.56,8.56,0,0,1-4.18-5.83.7.7,0,0,0-.78-.57h0a.69.69,0,0,0-.6.82c.31,1.76,1.53,6.23,5.88,7.69a.7.7,0,0,1,.5.68L321,159.82A.71.71,0,0,0,321.67,160.53Z"/><path class="cls-3" d="M301,124.57a46.47,46.47,0,0,0-.24-6.36s-2.23-8.32,3.64-11.14c5.68-2.73,10.94,10.14,9.71,18.1a12.42,12.42,0,0,0-.19,2.1,10.84,10.84,0,0,0,1.83,6.41,9.37,9.37,0,0,1,2,4.79c.46,4.74-.16,12.94-9.23,15.53a7.45,7.45,0,0,1-4.8-.19c-2.73-1.09-6.41-4.12-6.55-12.52a24.86,24.86,0,0,1,2.79-13.21A7.87,7.87,0,0,0,301,124.57Z"/><path class="cls-4" d="M306.65,159.58h1.51a.24.24,0,0,0,.24-.23l.18-14.44a.22.22,0,0,1,.15-.22c.86-.3,5.15-2,5.19-5.95a.24.24,0,0,0-.18-.24l-.87-.21a.23.23,0,0,0-.28.14c-.28.79-1.5,3.74-3.76,4.29a.25.25,0,0,1-.29-.24V128.86a.23.23,0,0,1,.18-.23,3.81,3.81,0,0,0,2.88-3.24.26.26,0,0,0-.17-.27l-1-.34a.25.25,0,0,0-.31.17c-.12.56-.52,1.88-1.45,2.12a.24.24,0,0,1-.31-.23v-7.72a.62.62,0,0,0-.62-.62h-.05a.88.88,0,0,0-.88.89l.29,14.82a.88.88,0,0,1-1.46.69,5,5,0,0,1-1.46-2.89.75.75,0,0,0-.87-.59l-.28,0a1,1,0,0,0-.86,1.17,2.89,2.89,0,0,0,.58,1.52.22.22,0,0,1-.07.36,3,3,0,0,1-1.2.31,1,1,0,0,0-1,.88h0a1.28,1.28,0,0,0,.73,1.31,7.75,7.75,0,0,0,4.45.76.83.83,0,0,1,.95.84l-.22,20.73A.22.22,0,0,0,306.65,159.58Z"/><path class="cls-3" d="M48.9,98.46c-2.16,3-6.36,10-3.73,17.3a16.65,16.65,0,0,1,.92,5.1,48.61,48.61,0,0,1-.15,7.34c-.49,3.34-1,16.86,12.18,22.45a2.08,2.08,0,0,0,2.58-.82c2.45-4,8.61-15.71,5.17-28.14-.08-.85-8.45-18.81-13.91-23.57A2.09,2.09,0,0,0,48.9,98.46Z"/><path class="cls-4" d="M62.9,156.28l1.87-.5-3.56-14s4.71-2.95,3.47-7.18l-1.26,0s-.19,4.21-2.74,5.3l-3.55-13.27a3.73,3.73,0,0,0,2-4.06l-1.49-.09s.26,2.36-1.1,2.73l-2.08-7.8a.34.34,0,0,0-.4-.23h0a1.18,1.18,0,0,0-.83,1.46l4.29,14.89s-1.55.83-3.47-2.09a1.67,1.67,0,0,0-1.36-.75H51.8s1.13,2.6,2.14,2.81a7.46,7.46,0,0,1-1.71.69,1.16,1.16,0,0,0-.87,1.28l.07.51a.22.22,0,0,0,.15.17c.69.18,3.88.92,6-.74Z"/><path class="cls-5" d="M45.45,118.78c0-.3-.29-15.41-8.79-24a3.63,3.63,0,0,1-1-2.39c-.23-4.88-1.92-20.5-14.19-23.67a7.79,7.79,0,0,0-5.57.59C13,70.83,9.34,74.13,11.82,80.83c0,0,4.83,11.42.82,21.39,0,0-5,14,.61,19.75a43.06,43.06,0,0,0,6.38,5c3.09,1.85,1.26,23.55,18.17,20.67s10.32-21.5,10.32-21.5Z"/><path class="cls-2" d="M35.92,158.84h2.62s1.71-17.18-3.22-41.53a1.87,1.87,0,0,1,.09-1.4c1.14-1.83,4.17-7.13,3.75-10.86,0,0-2.76,6.06-4.2,8.5a.54.54,0,0,1-1-.14l-3.21-11.8a3.58,3.58,0,0,1-.11-1.26l.63-7.08-1.93,5.48-4.7-13-.36,1.18a1.93,1.93,0,0,0,0,1.19l6.75,21.42-6.29-3.33a1.24,1.24,0,0,0-1.65.45h0s7.94,4.47,8.56,6.48c.48,1.56,1.71,7.46,2.23,10a.59.59,0,0,1-.84.64l-7.17-3.62a.71.71,0,0,0-.94.31h0a.7.7,0,0,0,.3.93l8,4.31a1.81,1.81,0,0,1,.92,1.19A98.29,98.29,0,0,1,35.92,158.84Z"/><path class="cls-6" d="M66.68,0H278.87a4,4,0,0,1,4,4V158.33a0,0,0,0,1,0,0H62.68a0,0,0,0,1,0,0V4A4,4,0,0,1,66.68,0Z"/><ellipse class="cls-6" cx="174.56" cy="159.91" rx="174.56" ry="2.36"/><path class="cls-7" d="M66.68,0H278.87a4,4,0,0,1,4,4v7.74a0,0,0,0,1,0,0H62.68a0,0,0,0,1,0,0V4A4,4,0,0,1,66.68,0Z"/><rect class="cls-8" x="72.53" y="25.14" width="82.94" height="20.52" rx="2.69"/><rect class="cls-8" x="72.53" y="94.25" width="82.94" height="20.52" rx="2.69"/><rect class="cls-8" x="72.53" y="123.67" width="82.94" height="20.52" rx="2.69"/><rect class="cls-8" x="170.98" y="94.25" width="96.64" height="20.52" rx="2.69"/><rect class="cls-8" x="170.98" y="123.67" width="96.64" height="20.52" rx="2.69"/><rect class="cls-8" x="72.53" y="51.03" width="120.23" height="6.88" rx="1.51"/><circle class="cls-9" cx="185.34" cy="104.73" r="3.35"/><circle class="cls-9" cx="199.13" cy="104.73" r="3.35"/><circle class="cls-9" cx="212.92" cy="104.73" r="3.35"/><rect class="cls-3" x="295.83" y="19.52" width="18.73" height="2.11" rx="1.05"/><rect class="cls-3" x="295.83" y="25.41" width="18.73" height="2.11" rx="1.05"/><rect class="cls-3" x="295.83" y="31.29" width="18.73" height="2.11" rx="1.05"/><path class="cls-7" d="M185.71,83.25a23,23,0,1,0-25,0,1.93,1.93,0,0,1-.33,3.38,33.65,33.65,0,0,0-20.28,25.23,4.8,4.8,0,0,0,3.94,5.54,4.46,4.46,0,0,0,.82.06h56.67a4.79,4.79,0,0,0,4.82-4.78,4.54,4.54,0,0,0-.07-.82A33.64,33.64,0,0,0,186,86.65a1.92,1.92,0,0,1-1-2.5,1.84,1.84,0,0,1,.74-.89Z"/><path class="cls-7" d="M137,109h-6.9a4.74,4.74,0,0,1-.55,0,3.15,3.15,0,0,1-2.59-3.65,22.15,22.15,0,0,1,13.37-16.64,1.11,1.11,0,0,0,.56-.47,1.25,1.25,0,0,0-.36-1.74,15.14,15.14,0,0,1,0-25.46,15,15,0,0,1,6.51-2.32,22.84,22.84,0,0,0,3.08,17.7A23.08,23.08,0,0,0,157,83.26a1.9,1.9,0,0,1,.56,2.65,2.11,2.11,0,0,1-.88.72A33.61,33.61,0,0,0,137,109Zm82.5-3.14a3.15,3.15,0,0,1-3.18,3.14h-6.92a33.57,33.57,0,0,0-19.63-22.4,1.91,1.91,0,0,1-.31-3.38,23,23,0,0,0,9.89-24.56,15.18,15.18,0,0,1,6.54,27.79,1.27,1.27,0,0,0,.19,2.24,22.13,22.13,0,0,1,13.36,16.62,2.44,2.44,0,0,1,.06.55Z"/><path class="cls-5" d="M54.76,54.64l-48.52,0a1.69,1.69,0,0,1-1.68-1.68L4.49,42.54a1.67,1.67,0,0,1,1.66-1.68l48.51,0a1.69,1.69,0,0,1,1.68,1.68L56.41,53A1.66,1.66,0,0,1,54.76,54.64Z"/><path class="cls-10" d="M8.71,52.5h0a.82.82,0,0,1-.82-.82V44a.82.82,0,0,1,.82-.82h0a.82.82,0,0,1,.82.82l0,7.72A.82.82,0,0,1,8.71,52.5ZM15,47.3h0a.82.82,0,0,0-.82.81v3.57a.81.81,0,0,0,.82.81h0a.81.81,0,0,0,.81-.81V48.11A.82.82,0,0,0,15,47.3Zm6.27-2.41h0a.82.82,0,0,0-.82.81v6a.82.82,0,0,0,.81.82h0a.82.82,0,0,0,.82-.82v-6A.82.82,0,0,0,21.25,44.89ZM27.51,49h0a.82.82,0,0,0-.82.81v1.81a.82.82,0,0,0,.82.82h0a.82.82,0,0,0,.81-.82v-1.8A.82.82,0,0,0,27.51,49Zm6.27-5.38h0a.81.81,0,0,0-.81.81v7.19a.81.81,0,0,0,.82.81h0a.81.81,0,0,0,.81-.81V44.47A.8.8,0,0,0,33.78,43.66Zm6.27,2h0a.82.82,0,0,0-.82.82v5.13a.81.81,0,0,0,.81.82h0a.82.82,0,0,0,.82-.82V46.52A.81.81,0,0,0,40.05,45.7Zm6.26,2.64h0a.81.81,0,0,0-.81.81v2.49a.82.82,0,0,0,.82.82h0a.82.82,0,0,0,.81-.82V49.15A.82.82,0,0,0,46.31,48.34Zm6.27-5.24h0a.81.81,0,0,0-.81.81v7.73a.81.81,0,0,0,.81.81h0a.82.82,0,0,0,.82-.81V43.91A.81.81,0,0,0,52.58,43.1Z"/></g></g></svg>