<svg xmlns="http://www.w3.org/2000/svg" viewBox="0 0 349.12 162.27"><defs><style>.cls-1{fill:#e2f0ff;}.cls-2{fill:#7ab3f7;}.cls-3{fill:#b3c8e3;}.cls-4{fill:#e9f2ff;}.cls-5{fill:#b4d8ff;}.cls-6{fill:#e7f3ff;}.cls-7{fill:#0052d9;}.cls-8,.cls-9{fill:#c0dbfb;}.cls-8{opacity:0.46;}.cls-10{fill:#fff;}</style></defs><g id="图层_2" data-name="图层 2"><g id="图层_1-2" data-name="图层 1"><path class="cls-1" d="M295.76,135.3a5.36,5.36,0,0,0,2,7.15,5.37,5.37,0,0,0,5-9.49A5.36,5.36,0,0,0,295.76,135.3Z"/><path class="cls-1" d="M298.71,132.74a5.11,5.11,0,0,1,6.65,3.17,5.59,5.59,0,0,1-3.48,6.92,5.09,5.09,0,0,1-6.51-3.43A5.41,5.41,0,0,1,298.71,132.74Z"/><path class="cls-1" d="M305.36,135.91q2.06,6.32,3.7,12.92l-11.27-6.38Q301.63,139.32,305.36,135.91Z"/><path class="cls-1" d="M327.86,152.29c-1.62,3.06-5,4.34-7.53,2.91s-3.2-4.89-1.67-7.78,4.79-4.25,7.37-3S329.48,149.23,327.86,152.29Z"/><path class="cls-1" d="M328.55,147.8a4.68,4.68,0,0,0-6.49-3.47,6.78,6.78,0,0,0-4.1,7.41,4.69,4.69,0,0,0,6.35,3.73A6.91,6.91,0,0,0,328.55,147.8Z"/><path class="cls-1" d="M322.06,144.33c-4.33,1.67-8.67,3.16-13,4.5l11.27,6.37Q321.35,149.76,322.06,144.33Z"/><path class="cls-1" d="M304.29,124.66a4.48,4.48,0,0,0,2.09,5.87,4.52,4.52,0,0,0,3.65-8.27A4.47,4.47,0,0,0,304.29,124.66Z"/><path class="cls-1" d="M306.61,122.32a4.21,4.21,0,0,1,5.7,2.26,4.72,4.72,0,0,1-2.5,6,4.2,4.2,0,0,1-5.62-2.45A4.6,4.6,0,0,1,306.61,122.32Z"/><path class="cls-1" d="M312.31,124.58q2.06,5.16,3.83,10.54l-9.76-4.59Q309.4,127.64,312.31,124.58Z"/><path class="cls-1" d="M329.93,101.21a4.05,4.05,0,0,1,.5,5.46,3.4,3.4,0,0,1-5,.76,4,4,0,0,1-.47-5.36A3.45,3.45,0,0,1,329.93,101.21Z"/><path class="cls-1" d="M330.43,106.67q-2.87,3.92-5.86,7.63c-.07-3.18-.21-6.35-.42-9.48Z"/><path class="cls-1" d="M332,136.89c-1.14,2.6-3.88,3.85-6,2.82s-3-3.85-1.89-6.32,3.73-3.78,6-2.87S333.11,134.29,332,136.89Z"/><path class="cls-1" d="M332.25,133.17a3.94,3.94,0,0,0-5.59-2.53,5.56,5.56,0,0,0-2.94,6.36,3.93,3.93,0,0,0,5.5,2.7A5.63,5.63,0,0,0,332.25,133.17Z"/><path class="cls-1" d="M326.66,130.64q-5.24,2.42-10.52,4.48l9.77,4.59Q326.39,135.15,326.66,130.64Z"/><path class="cls-1" d="M311.1,114.57a3.73,3.73,0,0,0,2,4.8,3.8,3.8,0,0,0,2.63-7.13A3.74,3.74,0,0,0,311.1,114.57Z"/><path class="cls-1" d="M312.93,112.48a3.48,3.48,0,0,1,4.85,1.59,4,4,0,0,1-1.78,5.15,3.49,3.49,0,0,1-4.81-1.73A3.9,3.9,0,0,1,312.93,112.48Z"/><path class="cls-1" d="M317.78,114.07q2,4.22,3.73,8.58l-8.37-3.28Q315.5,116.79,317.78,114.07Z"/><path class="cls-1" d="M334.74,123.3a3.89,3.89,0,0,1-4.87,2.63,4.2,4.2,0,0,1,2.88-7.79A3.89,3.89,0,0,1,334.74,123.3Z"/><path class="cls-1" d="M334.78,120.22A3.28,3.28,0,0,0,330,118.4a4.56,4.56,0,0,0-2.11,5.4,3.29,3.29,0,0,0,4.72,2A4.61,4.61,0,0,0,334.78,120.22Z"/><path class="cls-1" d="M330,118.4q-4.23,2.25-8.5,4.25l8.36,3.28Q330,122.15,330,118.4Z"/><path class="cls-1" d="M302,158.81l1.48,1a206.18,206.18,0,0,0,23.15-48.86l-1.68-.54A204.18,204.18,0,0,1,302,158.81Z"/><path class="cls-2" d="M326.28,112.17a73.27,73.27,0,0,0-5.43,11.52c-.79,2-1.32,4-1.94,6s-1.05,4.07-1.38,6.15a75.66,75.66,0,0,0-1.3,12.44q-.08,3.12.09,6.22c.08,1,.14,2,.25,3.06.07.75.17,1.54.29,2.25h-6c0-.68,0-1.34,0-2,0-1.12.08-2.22.13-3.34.15-2.2.38-4.4.69-6.58.05-.29.09-.58.13-.87a77.76,77.76,0,0,1,2.79-11.91c.59-2.1,1.41-4.12,2.17-6.14s1.67-4,2.72-5.9A73.31,73.31,0,0,1,326.28,112.17Z"/><path class="cls-2" d="M329.14,138.63A36,36,0,0,0,326.3,144a36.73,36.73,0,0,0-1.94,5.66,39.91,39.91,0,0,0-1.1,5.79c-.11,1-.2,1.93-.24,2.9,0,.47,0,1,0,1.48h-5.91c.2-.88.42-1.63.67-2.45.31-1,.67-2.06,1.06-3.07a47.16,47.16,0,0,1,2.71-5.8,39.19,39.19,0,0,1,3.47-5.29A38,38,0,0,1,329.14,138.63Z"/><path class="cls-2" d="M345.68,143.48a26.83,26.83,0,0,0-3.44,4.05,27.48,27.48,0,0,0-2.59,4.52,32.6,32.6,0,0,0-1.76,4.77c-.23.82-.42,1.63-.59,2.45,0,.18-.06.37-.1.57h-6a21.38,21.38,0,0,1,1.1-2.4c.46-.87.93-1.7,1.44-2.51a34.08,34.08,0,0,1,3.4-4.57,28.24,28.24,0,0,1,4-3.87A27.86,27.86,0,0,1,345.68,143.48Z"/><path class="cls-2" d="M314.08,159.84h-5.93c.14-.89.26-1.88.33-2.81.11-1.25.16-2.5.18-3.76a48.07,48.07,0,0,0-.54-7.56,38.53,38.53,0,0,0-1.91-7.42,33,33,0,0,0-3.53-6.93,34.61,34.61,0,0,1,4.91,6.26,40,40,0,0,1,3.49,7.32c.25.69.49,1.38.69,2.1a47.35,47.35,0,0,1,1.47,5.8c.24,1.35.46,2.71.61,4.09C314,157.9,314.05,158.83,314.08,159.84Z"/><path class="cls-2" d="M307.1,159.84h-5.9c0-.39,0-.79,0-1.19-.06-.88-.14-1.76-.26-2.65a38.6,38.6,0,0,0-1.12-5.33,39.1,39.1,0,0,0-1.85-5.22,44.3,44.3,0,0,0-2.54-5.06,46.22,46.22,0,0,1,3.85,4.27,42.65,42.65,0,0,1,3.36,4.78,44,44,0,0,1,2.71,5.3c.42.92.77,1.86,1.11,2.83.15.49.32,1,.46,1.49C307,159.33,307,159.57,307.1,159.84Z"/><path class="cls-2" d="M290.34,127.38a60.51,60.51,0,0,0-4.68,7.92,59.18,59.18,0,0,0-3.4,8.41c-.33,1-.64,2-.91,3.09-.18.64-.34,1.28-.48,1.91-.3,1.24-.56,2.47-.76,3.72-.26,1.47-.46,2.94-.61,4.4-.09,1-.17,2-.2,3h-6c.25-1.42.57-2.67.91-4q.64-2.34,1.44-4.59a59.61,59.61,0,0,1,2.29-5.68c.08-.2.17-.39.26-.59.39-.83.81-1.65,1.23-2.47a59.43,59.43,0,0,1,4.91-8A60.43,60.43,0,0,1,290.34,127.38Z"/><path class="cls-2" d="M291.42,159.84h-6c0-.23-.07-.45-.11-.68-.12-.8-.31-1.6-.51-2.4a23.75,23.75,0,0,0-1.83-4.69,24.55,24.55,0,0,0-2.11-3.36c-.25-.32-.5-.62-.76-.93a19.49,19.49,0,0,0-2.16-2.2q-.84-.74-1.74-1.44c.67.27,1.34.55,2,.85a18.6,18.6,0,0,1,2.91,1.65c.07.05.16.1.23.16a22.51,22.51,0,0,1,4.1,3.47,26.22,26.22,0,0,1,3.55,4.6,29.4,29.4,0,0,1,1.42,2.59c.22.45.42.91.62,1.38S291.29,159.48,291.42,159.84Z"/><rect class="cls-3" x="26.14" y="133.89" width="4.88" height="26.56"/><rect class="cls-4" x="17.03" y="75.75" width="23.09" height="66.8" rx="11.55"/><path class="cls-3" d="M24.6,147.81a8.8,8.8,0,0,1,1.68,1.66.69.69,0,0,0,1,0,.71.71,0,0,0,0-1,9.4,9.4,0,0,0-2-1.87.7.7,0,0,0-.94.24.71.71,0,0,0,.25.94Z"/><path class="cls-3" d="M31.84,152.06l-2,2.4c-.55.68.41,1.65,1,1l2-2.4c.56-.68-.41-1.66-1-1Z"/><rect class="cls-5" x="45.83" y="133.91" width="4.88" height="26.56"/><rect class="cls-2" x="38.54" y="102.72" width="19.45" height="45.9" rx="9.73"/><path class="cls-5" d="M43.83,151.53l1.64,1.66a.69.69,0,0,0,1-1l-1.64-1.66a.69.69,0,0,0-1,1Z"/><path class="cls-6" d="M66.68,0H278.87a4,4,0,0,1,4,4V158.33a0,0,0,0,1,0,0H62.68a0,0,0,0,1,0,0V4A4,4,0,0,1,66.68,0Z"/><ellipse class="cls-6" cx="174.56" cy="159.91" rx="174.56" ry="2.36"/><path class="cls-7" d="M66.68,0H278.87a4,4,0,0,1,4,4v7.74a0,0,0,0,1,0,0H62.68a0,0,0,0,1,0,0V4A4,4,0,0,1,66.68,0Z"/><rect class="cls-2" x="32.16" y="42.93" width="16.67" height="2.11" rx="1.05"/><rect class="cls-2" x="32.16" y="42.93" width="16.67" height="2.11" rx="1.05" transform="translate(84.48 3.5) rotate(90)"/><circle class="cls-8" cx="222.83" cy="84.64" r="40.66"/><circle class="cls-8" cx="110.22" cy="104.82" r="21.22"/><rect class="cls-9" x="90.54" y="46.67" width="81.81" height="14.63" rx="3.92"/><path class="cls-7" d="M207.36,104.39H138.19c-5.52,0-10.37-4.29-10.37-9.19v-49c0-4.91,4.84-9.2,10.37-9.2h69.17c5.52,0,10.37,4.29,10.37,9.2v49c0,4.9-4.84,9.19-10.37,9.19Z"/><path class="cls-10" d="M163.34,92.78a3.71,3.71,0,0,0,3.46-3.45V68.58a3.46,3.46,0,1,0-6.92,0V89.33a3.26,3.26,0,0,0,3.46,3.45Z"/><path class="cls-10" d="M178.55,92.78A3.26,3.26,0,0,0,182,89.33V79a3.46,3.46,0,1,0-6.91,0V89.32a3.26,3.26,0,0,0,3.45,3.46Z"/><path class="cls-10" d="M193.77,92.78a3.26,3.26,0,0,0,3.46-3.45V85.86a3.46,3.46,0,0,0-6.92,0v3.46a3.26,3.26,0,0,0,3.46,3.46Z"/><path class="cls-10" d="M148.12,92.78a3.71,3.71,0,0,0,3.46-3.45V58.2a3.46,3.46,0,1,0-6.91,0V89.33a3.26,3.26,0,0,0,3.45,3.45Z"/><path class="cls-7" d="M150.3,110.81h44.95a6.43,6.43,0,0,1,0,12.85H150.3a6.43,6.43,0,0,1,0-12.85Z"/><path class="cls-1" d="M304,80.84h20.79a3.79,3.79,0,0,0,4-3.6l-.22-36.68a3.84,3.84,0,0,0-4-3.6H303.78a3.79,3.79,0,0,0-4,3.6L300,77.24A3.84,3.84,0,0,0,304,80.84Z"/><path class="cls-10" d="M324.14,73.08h0a1.44,1.44,0,0,0,1.44-1.45l-.31-26.38a1.44,1.44,0,0,0-1.44-1.42h0a1.43,1.43,0,0,0-1.43,1.45l.31,26.38A1.43,1.43,0,0,0,324.14,73.08Z"/><path class="cls-10" d="M317.31,73.08h0a1.43,1.43,0,0,0,1.43-1.45l-.13-11.34a1.43,1.43,0,0,0-1.43-1.41h0a1.44,1.44,0,0,0-1.44,1.45l.14,11.33A1.43,1.43,0,0,0,317.31,73.08Z"/><path class="cls-10" d="M311.25,73.08h0a1.43,1.43,0,0,0,1.43-1.45l-.19-16.18A1.43,1.43,0,0,0,311.06,54h0a1.44,1.44,0,0,0-1.44,1.45l.19,16.17A1.44,1.44,0,0,0,311.25,73.08Z"/><path class="cls-10" d="M305,73.08h0a1.44,1.44,0,0,0,1.44-1.45l-.09-6.92a1.42,1.42,0,0,0-1.43-1.41h0a1.43,1.43,0,0,0-1.43,1.45l.08,6.91A1.43,1.43,0,0,0,305,73.08Z"/></g></g></svg>